<?xml version="1.0" encoding="iso-8859-1"?><!DOCTYPE svg PUBLIC "-//W3C//DTD SVG 1.1//EN" "http://www.w3.org/Graphics/SVG/1.1/DTD/svg11.dtd"><svg version="1.1" xmlns="http://www.w3.org/2000/svg" xmlns:xlink="http://www.w3.org/1999/xlink" x="0px" y="0px" width="620" height="620" viewBox="0 0 620 620" enable-background="new 0 0 620 620" xml:space="preserve"><g><polygon points="306,329 317,325 294,318" style="fill:#A67D8E;stroke:#A67D8E;"/><polygon points="317,325 327,320 294,318" style="fill:#AC8EA0;stroke:#AC8EA0;"/><polygon points="294,318 294,334 306,329" style="fill:#86525F;stroke:#86525F;"/><polygon points="324,351 328,331 317,325" style="fill:#906A78;stroke:#906A78;"/><polygon points="285,289 284,306 294,318" style="fill:#AC8794;stroke:#AC8794;"/><polygon points="294,318 280,323 294,334" style="fill:#956671;stroke:#956671;"/><polygon points="317,325 328,331 327,320" style="fill:#8C616F;stroke:#8C616F;"/><polygon points="324,351 317,325 306,329" style="fill:#9B707F;stroke:#9B707F;"/><polygon points="284,306 280,323 294,318" style="fill:#AF8996;stroke:#AF8996;"/><polygon points="328,331 338,330 327,320" style="fill:#783D4A;stroke:#783D4A;"/><polygon points="327,320 285,289 294,318" style="fill:#AF90A1;stroke:#AF90A1;"/><polygon points="284,306 196,303 280,323" style="fill:#AF90A1;stroke:#AF90A1;"/><polygon points="294,334 299,350 306,329" style="fill:#A08698;stroke:#A08698;"/><polygon points="328,331 324,351 338,330" style="fill:#9E7989;stroke:#9E7989;"/><polygon points="285,356 299,350 294,334" style="fill:#A3899B;stroke:#A3899B;"/><polygon points="327,320 336,279 285,289" style="fill:#AF8F9E;stroke:#AF8F9E;"/><polygon points="350,317 341,300 327,320" style="fill:#AC8795;stroke:#AC8795;"/><polygon points="299,350 324,351 306,329" style="fill:#A28798;stroke:#A28798;"/><polygon points="211,366 261,364 195,327" style="fill:#A07073;stroke:#A07073;"/><polygon points="336,279 286,279 285,289" style="fill:#AF8B98;stroke:#AF8B98;"/><polygon points="338,330 350,317 327,320" style="fill:#A37584;stroke:#A37584;"/><polygon points="356,368 350,317 338,330" style="fill:#A57E8D;stroke:#A57E8D;"/><polygon points="299,350 313,358 324,351" style="fill:#A58A9C;stroke:#A58A9C;"/><polygon points="280,323 285,356 294,334" style="fill:#A17888;stroke:#A17888;"/><polygon points="299,350 295,378 313,358" style="fill:#9C5C6F;stroke:#9C5C6F;"/><polygon points="341,300 336,279 327,320" style="fill:#A98490;stroke:#A98490;"/><polygon points="352,248 336,279 365,248" style="fill:#A58495;stroke:#A58495;"/><polygon points="323,379 339,359 324,351" style="fill:#965769;stroke:#965769;"/><polygon points="324,351 339,359 338,330" style="fill:#A48697;stroke:#A48697;"/><polygon points="336,279 295,262 286,279" style="fill:#AF8B99;stroke:#AF8B99;"/><polygon points="336,279 332,265 295,262" style="fill:#AE8A98;stroke:#AE8A98;"/><polygon points="338,246 332,265 352,248" style="fill:#A27B88;stroke:#A27B88;"/><polygon points="285,356 295,378 299,350" style="fill:#96586B;stroke:#96586B;"/><polygon points="323,379 340,372 339,359" style="fill:#924A5A;stroke:#924A5A;"/><polygon points="261,364 280,370 285,356" style="fill:#814854;stroke:#814854;"/><polygon points="280,370 295,378 285,356" style="fill:#8F4556;stroke:#8F4556;"/><polygon points="339,359 356,368 338,330" style="fill:#9F808F;stroke:#9F808F;"/><polygon points="323,379 324,351 313,358" style="fill:#995668;stroke:#995668;"/><polygon points="295,378 323,379 313,358" style="fill:#A26A7F;stroke:#A26A7F;"/><polygon points="280,370 274,420 295,378" style="fill:#A27581;stroke:#A27581;"/><polygon points="280,323 261,364 285,356" style="fill:#A68392;stroke:#A68392;"/><polygon points="244,253 284,306 285,289" style="fill:#B094A8;stroke:#B094A8;"/><polygon points="295,262 275,251 286,279" style="fill:#AD8998;stroke:#AD8998;"/><polygon points="286,279 261,255 285,289" style="fill:#AE91A4;stroke:#AE91A4;"/><polygon points="338,246 290,249 295,262" style="fill:#AD8691;stroke:#AD8691;"/><polygon points="340,372 356,368 339,359" style="fill:#7C3E4A;stroke:#7C3E4A;"/><polygon points="379,405 356,368 340,372" style="fill:#A07781;stroke:#A07781;"/><polygon points="290,249 275,251 295,262" style="fill:#A67D89;stroke:#A67D89;"/><polygon points="332,265 338,246 295,262" style="fill:#AC8590;stroke:#AC8590;"/><polygon points="352,248 332,265 336,279" style="fill:#AB8897;stroke:#AB8897;"/><polygon points="275,251 261,255 286,279" style="fill:#A78597;stroke:#A78597;"/><polygon points="365,248 336,279 341,300" style="fill:#AE90A2;stroke:#AE90A2;"/><polygon points="365,248 341,300 380,246" style="fill:#A78698;stroke:#A78698;"/><polygon points="290,249 277,238 275,251" style="fill:#8E5862;stroke:#8E5862;"/><polygon points="275,251 261,234 261,255" style="fill:#53414C;stroke:#53414C;"/><polygon points="285,212 277,238 290,249" style="fill:#9B646B;stroke:#9B646B;"/><polygon points="352,248 350,232 338,246" style="fill:#834B56;stroke:#834B56;"/><polygon points="285,212 261,234 277,238" style="fill:#986870;stroke:#986870;"/><polygon points="380,246 341,300 350,317" style="fill:#AF92A5;stroke:#AF92A5;"/><polygon points="261,234 244,253 261,255" style="fill:#5B4652;stroke:#5B4652;"/><polygon points="261,255 244,253 285,289" style="fill:#AA8C9E;stroke:#AA8C9E;"/><polygon points="285,212 290,249 341,214" style="fill:#A47A84;stroke:#A47A84;"/><polygon points="277,238 261,234 275,251" style="fill:#754E5A;stroke:#754E5A;"/><polygon points="365,248 350,232 352,248" style="fill:#604752;stroke:#604752;"/><polygon points="365,248 366,224 350,232" style="fill:#5D444E;stroke:#5D444E;"/><polygon points="426,288 380,246 350,317" style="fill:#AF8F9F;stroke:#AF8F9F;"/><polygon points="261,234 241,234 244,253" style="fill:#784F5B;stroke:#784F5B;"/><polygon points="195,327 261,364 280,323" style="fill:#A9838F;stroke:#A9838F;"/><polygon points="257,208 241,234 261,234" style="fill:#997887;stroke:#997887;"/><polygon points="341,214 290,249 338,246" style="fill:#A27179;stroke:#A27179;"/><polygon points="350,232 341,214 338,246" style="fill:#965A62;stroke:#965A62;"/><polygon points="366,224 341,214 350,232" style="fill:#95626B;stroke:#95626B;"/><polygon points="241,234 226,246 244,253" style="fill:#7F3C47;stroke:#7F3C47;"/><polygon points="380,246 366,224 365,248" style="fill:#553E48;stroke:#553E48;"/><polygon points="261,364 274,420 280,370" style="fill:#A0737B;stroke:#A0737B;"/><polygon points="196,303 284,306 244,253" style="fill:#AF90A2;stroke:#AF90A2;"/><polygon points="295,378 310,431 323,379" style="fill:#9F7989;stroke:#9F7989;"/><polygon points="356,431 379,405 340,372" style="fill:#987583;stroke:#987583;"/><polygon points="239,414 274,420 261,364" style="fill:#9D757E;stroke:#9D757E;"/><polygon points="199,278 196,303 244,253" style="fill:#A98089;stroke:#A98089;"/><polygon points="196,303 195,327 280,323" style="fill:#A8818C;stroke:#A8818C;"/><polygon points="380,246 383,230 366,224" style="fill:#865B65;stroke:#865B65;"/><polygon points="366,224 371,211 341,214" style="fill:#6C3E48;stroke:#6C3E48;"/><polygon points="226,246 199,278 244,253" style="fill:#A77E87;stroke:#A77E87;"/><polygon points="356,368 425,320 350,317" style="fill:#AA8694;stroke:#AA8694;"/><polygon points="380,246 406,235 383,230" style="fill:#7F4C55;stroke:#7F4C55;"/><polygon points="356,431 340,372 323,379" style="fill:#A07985;stroke:#A07985;"/><polygon points="274,420 310,431 295,378" style="fill:#A18191;stroke:#A18191;"/><polygon points="416,370 425,320 356,368" style="fill:#997079;stroke:#997079;"/><polygon points="285,212 257,208 261,234" style="fill:#7D5561;stroke:#7D5561;"/><polygon points="241,234 230,213 226,246" style="fill:#A07782;stroke:#A07782;"/><polygon points="226,246 194,247 199,278" style="fill:#A77D84;stroke:#A77D84;"/><polygon points="257,202 257,208 285,212" style="fill:#755765;stroke:#755765;"/><polygon points="219,407 239,414 261,364" style="fill:#99717A;stroke:#99717A;"/><polygon points="274,420 299,520 310,431" style="fill:#96707D;stroke:#96707D;"/><polygon points="408,384 416,370 356,368" style="fill:#956D78;stroke:#956D78;"/><polygon points="379,405 408,384 356,368" style="fill:#966D77;stroke:#966D77;"/><polygon points="425,320 426,288 350,317" style="fill:#A6828E;stroke:#A6828E;"/><polygon points="396,215 371,211 383,230" style="fill:#8B6471;stroke:#8B6471;"/><polygon points="383,230 371,211 366,224" style="fill:#9A7683;stroke:#9A7683;"/><polygon points="204,128 257,202 217,107" style="fill:#AA838C;stroke:#AA838C;"/><polygon points="257,208 230,213 241,234" style="fill:#8C6878;stroke:#8C6878;"/><polygon points="303,88 285,212 341,214" style="fill:#B195AA;stroke:#B195AA;"/><polygon points="310,431 356,431 323,379" style="fill:#9C7A89;stroke:#9C7A89;"/><polygon points="379,405 408,412 408,384" style="fill:#896676;stroke:#896676;"/><polygon points="211,366 219,407 261,364" style="fill:#9C6F75;stroke:#9C6F75;"/><polygon points="183,458 219,407 211,366" style="fill:#F5F1F3;stroke:#F5F1F3;"/><polygon points="430,261 406,235 380,246" style="fill:#9D727B;stroke:#9D727B;"/><polygon points="257,202 230,213 257,208" style="fill:#876879;stroke:#876879;"/><polygon points="396,215 369,202 371,211" style="fill:#5C3B46;stroke:#5C3B46;"/><polygon points="371,211 369,202 341,214" style="fill:#472832;stroke:#472832;"/><polygon points="230,213 194,247 226,246" style="fill:#A4777D;stroke:#A4777D;"/><polygon points="155,259 172,325 196,303" style="fill:#B99AA7;stroke:#B99AA7;"/><polygon points="196,303 172,325 195,327" style="fill:#A6808E;stroke:#A6808E;"/><polygon points="406,235 396,215 383,230" style="fill:#9B747F;stroke:#9B747F;"/><polygon points="426,288 430,261 380,246" style="fill:#A17982;stroke:#A17982;"/><polygon points="406,235 435,219 396,215" style="fill:#966C74;stroke:#966C74;"/><polygon points="445,300 430,261 426,288" style="fill:#96616C;stroke:#96616C;"/><polygon points="195,327 172,325 211,366" style="fill:#CDB8BF;stroke:#CDB8BF;"/><polygon points="155,259 196,303 199,278" style="fill:#A77F8D;stroke:#A77F8D;"/><polygon points="446,319 445,300 425,320" style="fill:#A88493;stroke:#A88493;"/><polygon points="425,320 445,300 426,288" style="fill:#94636C;stroke:#94636C;"/><polygon points="416,370 446,319 425,320" style="fill:#D9C9CF;stroke:#D9C9CF;"/><polygon points="433,404 446,319 416,370" style="fill:#FEFEFE;stroke:#FEFEFE;"/><polygon points="408,384 433,404 416,370" style="fill:#F9F6F7;stroke:#F9F6F7;"/><polygon points="401,437 408,412 379,405" style="fill:#8F6D7B;stroke:#8F6D7B;"/><polygon points="219,407 225,435 239,414" style="fill:#947787;stroke:#947787;"/><polygon points="239,414 225,435 274,420" style="fill:#967582;stroke:#967582;"/><polygon points="438,460 401,437 326,520" style="fill:#ABB4CD;stroke:#ABB4CD;"/><polygon points="183,458 225,435 219,407" style="fill:#B7C0D3;stroke:#B7C0D3;"/><polygon points="435,219 430,238 462,234" style="fill:#996473;stroke:#996473;"/><polygon points="430,261 430,238 406,235" style="fill:#976971;stroke:#976971;"/><polygon points="408,412 433,404 408,384" style="fill:#F5F4F6;stroke:#F5F4F6;"/><polygon points="356,431 401,437 379,405" style="fill:#906672;stroke:#906672;"/><polygon points="401,437 356,431 326,520" style="fill:#9A7C89;stroke:#9A7C89;"/><polygon points="194,247 155,259 199,278" style="fill:#A06F79;stroke:#A06F79;"/><polygon points="230,213 181,228 194,247" style="fill:#A06F70;stroke:#A06F70;"/><polygon points="180,208 181,228 230,213" style="fill:#9F6C6C;stroke:#9F6C6C;"/><polygon points="401,437 433,404 408,412" style="fill:#CDD3E0;stroke:#CDD3E0;"/><polygon points="430,238 435,219 406,235" style="fill:#8D6069;stroke:#8D6069;"/><polygon points="396,215 428,191 369,202" style="fill:#976E78;stroke:#976E78;"/><polygon points="462,234 430,238 430,261" style="fill:#985C67;stroke:#985C67;"/><polygon points="181,228 155,259 194,247" style="fill:#A36E79;stroke:#A36E79;"/><polygon points="181,228 164,227 155,259" style="fill:#9E6371;stroke:#9E6371;"/><polygon points="184,184 180,208 230,213" style="fill:#9B6563;stroke:#9B6563;"/><polygon points="180,208 164,227 181,228" style="fill:#E3D8DC;stroke:#E3D8DC;"/><polygon points="435,219 428,191 396,215" style="fill:#8D6068;stroke:#8D6068;"/><polygon points="191,154 230,213 257,202" style="fill:#A77D85;stroke:#A77D85;"/><polygon points="435,219 453,217 428,191" style="fill:#B5A5AA;stroke:#B5A5AA;"/><polygon points="445,300 462,234 430,261" style="fill:#A47987;stroke:#A47987;"/><polygon points="446,319 462,234 445,300" style="fill:#D7C4CB;stroke:#D7C4CB;"/><polygon points="620,563 462,234 446,319" style="fill:#FEFEFE;stroke:#FEFEFE;"/><polygon points="462,234 453,217 435,219" style="fill:#A47A87;stroke:#A47A87;"/><polygon points="180,208 170,190 164,227" style="fill:#FBFAFA;stroke:#FBFAFA;"/><polygon points="191,154 184,184 230,213" style="fill:#9E6763;stroke:#9E6763;"/><polygon points="191,154 257,202 204,128" style="fill:#A87B81;stroke:#A87B81;"/><polygon points="184,184 170,190 180,208" style="fill:#A0858C;stroke:#A0858C;"/><polygon points="164,227 170,190 155,259" style="fill:#D1BCC2;stroke:#D1BCC2;"/><polygon points="225,435 299,520 274,420" style="fill:#9A7A89;stroke:#9A7A89;"/><polygon points="172,325 183,458 211,366" style="fill:#FBFAFA;stroke:#FBFAFA;"/><polygon points="110,497 183,458 172,325" style="fill:#FDFDFD;stroke:#FDFDFD;"/><polygon points="428,191 427,168 369,202" style="fill:#9B6D74;stroke:#9B6D74;"/><polygon points="441,166 427,168 428,191" style="fill:#4A323B;stroke:#4A323B;"/><polygon points="433,404 620,563 446,319" style="fill:#FBFCFD;stroke:#FBFCFD;"/><polygon points="401,437 438,460 433,404" style="fill:#D4D9E5;stroke:#D4D9E5;"/><polygon points="326,520 356,431 310,431" style="fill:#966D78;stroke:#966D78;"/><polygon points="184,184 176,163 170,190" style="fill:#A2959A;stroke:#A2959A;"/><polygon points="257,202 239,90 217,107" style="fill:#AB858E;stroke:#AB858E;"/><polygon points="427,168 423,136 369,202" style="fill:#9B6C71;stroke:#9B6C71;"/><polygon points="453,217 441,166 428,191" style="fill:#B4AAAE;stroke:#B4AAAE;"/><polygon points="462,234 441,166 453,217" style="fill:#F3EDEF;stroke:#F3EDEF;"/><polygon points="191,154 176,163 184,184" style="fill:#5C373F;stroke:#5C373F;"/><polygon points="183,458 299,520 225,435" style="fill:#AAB2CB;stroke:#AAB2CB;"/><polygon points="299,520 326,520 310,431" style="fill:#977685;stroke:#977685;"/><polygon points="439,142 423,136 427,168" style="fill:#21161E;stroke:#21161E;"/><polygon points="191,154 178,141 176,163" style="fill:#43363C;stroke:#43363C;"/><polygon points="257,202 285,212 303,88" style="fill:#B094A7;stroke:#B094A7;"/><polygon points="204,128 178,141 191,154" style="fill:#563740;stroke:#563740;"/><polygon points="176,163 178,141 170,190" style="fill:#EFEDEE;stroke:#EFEDEE;"/><polygon points="170,190 0,565 155,259" style="fill:#FDFCFC;stroke:#FDFCFC;"/><polygon points="462,234 439,142 441,166" style="fill:#FBFBFB;stroke:#FBFBFB;"/><polygon points="441,166 439,142 427,168" style="fill:#4C454A;stroke:#4C454A;"/><polygon points="303,88 341,214 369,202" style="fill:#AE8E9F;stroke:#AE8E9F;"/><polygon points="204,128 190,112 178,141" style="fill:#231B22;stroke:#231B22;"/><polygon points="393,98 369,202 423,136" style="fill:#A17073;stroke:#A17073;"/><polygon points="326,81 303,88 369,202" style="fill:#AC848E;stroke:#AC848E;"/><polygon points="437,124 414,112 423,136" style="fill:#110F14;stroke:#110F14;"/><polygon points="439,142 437,124 423,136" style="fill:#4B484C;stroke:#4B484C;"/><polygon points="462,234 437,124 439,142" style="fill:#FEFDFE;stroke:#FEFDFE;"/><polygon points="399,93 393,98 414,112" style="fill:#663942;stroke:#663942;"/><polygon points="414,112 393,98 423,136" style="fill:#71424B;stroke:#71424B;"/><polygon points="196,91 190,112 217,107" style="fill:#3E383D;stroke:#3E383D;"/><polygon points="217,107 190,112 204,128" style="fill:#553D45;stroke:#553D45;"/><polygon points="393,98 326,81 369,202" style="fill:#A97D82;stroke:#A97D82;"/><polygon points="261,82 239,90 257,202" style="fill:#AE8791;stroke:#AE8791;"/><polygon points="278,81 257,202 303,88" style="fill:#A9828F;stroke:#A9828F;"/><polygon points="269,40 278,81 296,32" style="fill:#0C0A0E;stroke:#0C0A0E;"/><polygon points="278,81 261,82 257,202" style="fill:#AC8490;stroke:#AC8490;"/><polygon points="421,93 399,93 414,112" style="fill:#0D090F;stroke:#0D090F;"/><polygon points="393,98 349,72 326,81" style="fill:#9E6A6E;stroke:#9E6A6E;"/><polygon points="399,93 382,81 393,98" style="fill:#855159;stroke:#855159;"/><polygon points="382,81 349,72 393,98" style="fill:#986265;stroke:#986265;"/><polygon points="269,40 259,68 278,81" style="fill:#27151D;stroke:#27151D;"/><polygon points="278,81 259,68 261,82" style="fill:#793C46;stroke:#793C46;"/><polygon points="437,124 421,93 414,112" style="fill:#474448;stroke:#474448;"/><polygon points="399,93 408,79 382,81" style="fill:#25171E;stroke:#25171E;"/><polygon points="220,75 217,107 239,90" style="fill:#6C4F58;stroke:#6C4F58;"/><polygon points="220,75 196,91 217,107" style="fill:#3D373B;stroke:#3D373B;"/><polygon points="190,112 196,91 178,141" style="fill:#BEB9BC;stroke:#BEB9BC;"/><polygon points="261,82 259,68 239,90" style="fill:#9E747C;stroke:#9E747C;"/><polygon points="278,81 303,88 296,32" style="fill:#190A10;stroke:#190A10;"/><polygon points="269,40 241,57 259,68" style="fill:#261D24;stroke:#261D24;"/><polygon points="382,81 362,67 349,72" style="fill:#915A60;stroke:#915A60;"/><polygon points="389,62 362,67 382,81" style="fill:#462F37;stroke:#462F37;"/><polygon points="241,57 220,75 239,90" style="fill:#33272D;stroke:#33272D;"/><polygon points="421,93 408,79 399,93" style="fill:#3D3A3E;stroke:#3D3A3E;"/><polygon points="408,79 389,62 382,81" style="fill:#524C50;stroke:#524C50;"/><polygon points="303,88 326,81 296,32" style="fill:#321E25;stroke:#321E25;"/><polygon points="259,68 241,57 239,90" style="fill:#6F4E58;stroke:#6F4E58;"/><polygon points="220,75 241,57 196,91" style="fill:#8F8A8D;stroke:#8F8A8D;"/><polygon points="354,40 349,72 362,67" style="fill:#462931;stroke:#462931;"/><polygon points="183,458 242,608 299,520" style="fill:#ABB3CB;stroke:#ABB3CB;"/><polygon points="155,259 110,497 172,325" style="fill:#FFFFFF;stroke:#FFFFFF;"/><polygon points="389,62 372,51 362,67" style="fill:#423A3F;stroke:#423A3F;"/><polygon points="327,33 326,81 349,72" style="fill:#462A32;stroke:#462A32;"/><polygon points="372,51 354,40 362,67" style="fill:#322B30;stroke:#322B30;"/><polygon points="354,40 327,33 349,72" style="fill:#160F14;stroke:#160F14;"/><polygon points="327,33 296,32 326,81" style="fill:#20171E;stroke:#20171E;"/><polygon points="299,520 333,620 326,520" style="fill:#3B3D54;stroke:#3B3D54;"/><polygon points="326,520 383,609 438,460" style="fill:#ACB4CC;stroke:#ACB4CC;"/><polygon points="181,620 242,608 183,458" style="fill:#A4AFC8;stroke:#A4AFC8;"/><polygon points="333,620 383,609 326,520" style="fill:#828BA2;stroke:#828BA2;"/><polygon points="256,620 333,620 299,520" style="fill:#545A71;stroke:#545A71;"/><polygon points="242,608 256,620 299,520" style="fill:#94A0B8;stroke:#94A0B8;"/><polygon points="181,620 256,620 242,608" style="fill:#A2AEC7;stroke:#A2AEC7;"/><polygon points="333,620 408,620 383,609" style="fill:#9FACC5;stroke:#9FACC5;"/><polygon points="383,609 408,620 438,460" style="fill:#A5B1C9;stroke:#A5B1C9;"/><polygon points="110,497 181,620 183,458" style="fill:#A5B2CA;stroke:#A5B2CA;"/><polygon points="438,460 620,563 433,404" style="fill:#DDE1EA;stroke:#DDE1EA;"/><polygon points="408,620 505,620 438,460" style="fill:#A8B3CA;stroke:#A8B3CA;"/><polygon points="110,497 102,620 181,620" style="fill:#A4B1CA;stroke:#A4B1CA;"/><polygon points="110,497 0,565 102,620" style="fill:#A3B0C9;stroke:#A3B0C9;"/><polygon points="155,259 0,565 110,497" style="fill:#F6F7FA;stroke:#F6F7FA;"/><polygon points="178,141 0,565 170,190" style="fill:#FFFFFF;stroke:#FFFFFF;"/><polygon points="196,91 0,565 178,141" style="fill:#FDFDFD;stroke:#FDFDFD;"/><polygon points="505,620 620,563 438,460" style="fill:#A8B3CD;stroke:#A8B3CD;"/><polygon points="462,234 620,563 437,124" style="fill:#FEFFFF;stroke:#FEFFFF;"/><polygon points="505,620 581,620 620,563" style="fill:#A8B3CC;stroke:#A8B3CC;"/><polygon points="0,565 23,620 102,620" style="fill:#A1AEC7;stroke:#A1AEC7;"/><polygon points="0,565 0,620 23,620" style="fill:#A1AEC7;stroke:#A1AEC7;"/><polygon points="581,620 620,620 620,563" style="fill:#A8B4CD;stroke:#A8B4CD;"/></g></svg>